<svg width="521" height="329" viewBox="0 0 521 329" fill="none" xmlns="http://www.w3.org/2000/svg">
<path d="M520.146 146.118V182.848L519.079 186.993L517.321 191.043L514.883 194.989L511.786 198.768L508.062 202.358L503.741 205.718L498.886 208.816L313.313 315.996L307.946 318.801L302.129 321.303L295.914 323.449L289.375 325.238L282.553 326.651L275.523 327.667L268.356 328.274L261.126 328.483L253.897 328.274L246.73 327.667L239.699 326.651L232.878 325.238L226.339 323.449L220.124 321.303L214.307 318.801L208.939 315.996L23.3665 208.816L18.5119 205.718L14.1909 202.358L10.4663 198.768L7.36943 194.989L4.93165 191.043L3.17397 186.993L2.10677 182.848L0.980591 143.618" stroke="white" stroke-opacity="0.15"/>
<path d="M22.2208 207.989L22.2208 180.491" stroke="white" stroke-opacity="0.14"/>
<path d="M207.689 315.484V270.008" stroke="white" stroke-opacity="0.14"/>
<path d="M312.07 315.484V270.008" stroke="white" stroke-opacity="0.14"/>
<path d="M498.248 209.239L498.248 180.491" stroke="white" stroke-opacity="0.14"/>
<path d="M497.637 120.167L502.492 123.265L506.813 126.625L510.537 130.215L513.634 133.994L516.072 137.94L517.83 141.991L518.897 146.135L519.253 150.312L518.897 154.488L517.83 158.633L516.072 162.683L513.634 166.629L510.537 170.408L506.813 173.998L502.492 177.358L497.637 180.456L312.064 287.636L306.697 290.441L300.88 292.943L294.665 295.089L288.126 296.879L281.304 298.292L274.274 299.307L267.107 299.914L259.877 300.123L252.648 299.914L245.481 299.307L238.45 298.292L231.628 296.879L225.089 295.089L218.875 292.943L213.058 290.441L207.69 287.636L22.1173 180.456L17.2627 177.358L12.9417 173.998L9.21703 170.408L6.12018 166.629L3.6824 162.683L1.92471 158.633L0.85752 154.488L0.501831 150.312L0.85752 146.135L1.92471 141.991L3.6824 137.94L6.12018 133.994L9.21703 130.215L12.9417 126.625L17.2627 123.265L22.1173 120.167L207.69 12.9869L213.058 10.1818L218.875 7.68023L225.089 5.53454L231.628 3.74472L238.45 2.33169L245.481 1.31641L252.648 0.709317L259.877 0.5L267.107 0.709317L274.274 1.31641L281.304 2.33169L288.126 3.74472L294.665 5.53454L300.88 7.68023L306.697 10.1818L312.064 12.9869L497.637 120.167Z" fill="#181818"/>
<path d="M497.637 120.167L502.492 123.265L506.813 126.625L510.537 130.215L513.634 133.994L516.072 137.94L517.83 141.991L518.897 146.135L519.253 150.312L518.897 154.488L517.83 158.633L516.072 162.683L513.634 166.629L510.537 170.408L506.813 173.998L502.492 177.358L497.637 180.456L312.064 287.636L306.697 290.441L300.88 292.943L294.665 295.089L288.126 296.879L281.304 298.292L274.274 299.307L267.107 299.914L259.877 300.123L252.648 299.914L245.481 299.307L238.45 298.292L231.628 296.879L225.089 295.089L218.875 292.943L213.058 290.441L207.69 287.636L22.1173 180.456L17.2627 177.358L12.9417 173.998L9.21703 170.408L6.12018 166.629L3.6824 162.683L1.92471 158.633L0.85752 154.488L0.501831 150.312L0.85752 146.135L1.92471 141.991L3.6824 137.94L6.12018 133.994L9.21703 130.215L12.9417 126.625L17.2627 123.265L22.1173 120.167L207.69 12.9869L213.058 10.1818L218.875 7.68023L225.089 5.53454L231.628 3.74472L238.45 2.33169L245.481 1.31641L252.648 0.709317L259.877 0.5L267.107 0.709317L274.274 1.31641L281.304 2.33169L288.126 3.74472L294.665 5.53454L300.88 7.68023L306.697 10.1818L312.064 12.9869L497.637 120.167Z" fill="#181818"/>
<path d="M497.637 120.167L502.492 123.265L506.813 126.625L510.537 130.215L513.634 133.994L516.072 137.94L517.83 141.991L518.897 146.135L519.253 150.312L518.897 154.488L517.83 158.633L516.072 162.683L513.634 166.629L510.537 170.408L506.813 173.998L502.492 177.358L497.637 180.456L312.064 287.636L306.697 290.441L300.88 292.943L294.665 295.089L288.126 296.879L281.304 298.292L274.274 299.307L267.107 299.914L259.877 300.123L252.648 299.914L245.481 299.307L238.45 298.292L231.628 296.879L225.089 295.089L218.875 292.943L213.058 290.441L207.69 287.636L22.1173 180.456L17.2627 177.358L12.9417 173.998L9.21703 170.408L6.12018 166.629L3.6824 162.683L1.92471 158.633L0.85752 154.488L0.501831 150.312L0.85752 146.135L1.92471 141.991L3.6824 137.94L6.12018 133.994L9.21703 130.215L12.9417 126.625L17.2627 123.265L22.1173 120.167L207.69 12.9869L213.058 10.1818L218.875 7.68023L225.089 5.53454L231.628 3.74472L238.45 2.33169L245.481 1.31641L252.648 0.709317L259.877 0.5L267.107 0.709317L274.274 1.31641L281.304 2.33169L288.126 3.74472L294.665 5.53454L300.88 7.68023L306.697 10.1818L312.064 12.9869L497.637 120.167Z" fill="#181818" stroke="white" stroke-opacity="0.14"/>
<path d="M464.348 124.385L468.533 127.054L472.247 129.943L475.449 133.031L478.106 136.286L480.209 139.667L481.716 143.163L482.637 146.722L482.94 150.312L482.637 153.902L481.716 157.461L480.209 160.957L478.106 164.337L475.449 167.592L472.247 170.68L468.533 173.569L464.348 176.238L304.764 268.409L300.15 270.827L295.149 272.972L289.803 274.825L284.174 276.353L278.304 277.567L272.267 278.447L266.105 278.97L259.88 279.148L253.655 278.97L247.492 278.447L241.455 277.567L235.586 276.353L229.957 274.825L224.611 272.972L219.61 270.827L214.996 268.409L55.4116 176.238L51.2266 173.569L47.5125 170.68L44.3109 167.592L41.6534 164.337L39.5505 160.957L38.0439 157.461L37.1232 153.902L36.8198 150.312L37.1232 146.722L38.0439 143.163L39.5505 139.667L41.6534 136.286L44.3109 133.031L47.5125 129.943L51.2266 127.054L55.4116 124.385L214.996 32.2146L219.61 29.7967L224.611 27.651L229.957 25.7984L235.586 24.2702L241.455 23.0561L247.492 22.1769L253.655 21.6535L259.88 21.4756L266.105 21.6535L272.267 22.1769L278.304 23.0561L284.174 24.2702L289.803 25.7984L295.149 27.651L300.15 29.7967L304.764 32.2146L464.348 124.385Z" fill="#181818"/>
<path d="M464.348 126.479L468.533 129.148L472.247 132.037L475.449 135.125L478.106 138.38L480.209 141.761L481.716 145.257L482.637 148.815L482.94 152.406L482.637 155.996L481.716 159.554L480.209 163.05L478.106 166.431L475.449 169.686L472.247 172.774L468.533 175.663L464.348 178.332L304.764 270.503L300.15 272.921L295.149 275.066L289.803 276.919L284.174 278.447L278.304 279.661L272.267 280.54L266.105 281.064L259.88 281.242L253.655 281.064L247.492 280.54L241.455 279.661L235.586 278.447L229.957 276.919L224.611 275.066L219.61 272.921L214.996 270.503L55.4116 178.332L51.2266 175.663L47.5125 172.774L44.3109 169.686L41.6534 166.431L39.5505 163.05L38.0439 159.554L37.1232 155.996L36.8198 152.406L37.1232 148.815L38.0439 145.257L39.5505 141.761L41.6534 138.38L44.3109 135.125L47.5125 132.037L51.2266 129.148L55.4116 126.479L214.996 34.3083L219.61 31.8905L224.611 29.7448L229.957 27.8921L235.586 26.364L241.455 25.1498L247.492 24.2706L253.655 23.7473L259.88 23.5693L266.105 23.7473L272.267 24.2706L278.304 25.1498L284.174 26.364L289.803 27.8921L295.149 29.7448L300.15 31.8905L304.764 34.3083L464.348 126.479Z" fill="#181818" stroke="white" stroke-opacity="0.14"/>
<path d="M464.348 124.385L468.533 127.054L472.247 129.943L475.449 133.031L478.106 136.286L480.209 139.667L481.716 143.163L482.637 146.722L482.94 150.312L482.637 153.902L481.716 157.461L480.209 160.957L478.106 164.337L475.449 167.592L472.247 170.68L468.533 173.569L464.348 176.238L304.764 268.409L300.15 270.827L295.149 272.972L289.803 274.825L284.174 276.353L278.304 277.567L272.267 278.447L266.105 278.97L259.88 279.148L253.655 278.97L247.492 278.447L241.455 277.567L235.586 276.353L229.957 274.825L224.611 272.972L219.61 270.827L214.996 268.409L55.4116 176.238L51.2266 173.569L47.5125 170.68L44.3109 167.592L41.6534 164.337L39.5505 160.957L38.0439 157.461L37.1232 153.902L36.8198 150.312L37.1232 146.722L38.0439 143.163L39.5505 139.667L41.6534 136.286L44.3109 133.031L47.5125 129.943L51.2266 127.054L55.4116 124.385L214.996 32.2146L219.61 29.7967L224.611 27.651L229.957 25.7984L235.586 24.2702L241.455 23.0561L247.492 22.1769L253.655 21.6535L259.88 21.4756L266.105 21.6535L272.267 22.1769L278.304 23.0561L284.174 24.2702L289.803 25.7984L295.149 27.651L300.15 29.7967L304.764 32.2146L464.348 124.385Z" fill="#181818" stroke="black" stroke-opacity="0.6"/>
<path d="M259.878 293.054C262.001 293.054 263.722 292.06 263.722 290.834C263.722 289.607 262.001 288.613 259.878 288.613C257.755 288.613 256.034 289.607 256.034 290.834C256.034 292.06 257.755 293.054 259.878 293.054Z" fill="#181818" stroke="white" stroke-opacity="0.35"/>
<path d="M259.878 292.112C262.001 292.112 263.722 291.118 263.722 289.892C263.722 288.665 262.001 287.671 259.878 287.671C257.755 287.671 256.034 288.665 256.034 289.892C256.034 291.118 257.755 292.112 259.878 292.112Z" fill="#181818" stroke="black" stroke-opacity="0.35" stroke-width="0.752677"/>
<path d="M18.2192 153.474C20.3422 153.474 22.0632 152.48 22.0632 151.254C22.0632 150.028 20.3422 149.034 18.2192 149.034C16.0962 149.034 14.3752 150.028 14.3752 151.254C14.3752 152.48 16.0962 153.474 18.2192 153.474Z" fill="#181818" stroke="white" stroke-opacity="0.35"/>
<path d="M18.2194 152.532C20.3424 152.532 22.0633 151.538 22.0633 150.312C22.0633 149.086 20.3424 148.092 18.2194 148.092C16.0964 148.092 14.3753 149.086 14.3753 150.312C14.3753 151.538 16.0964 152.532 18.2194 152.532Z" fill="#181818" stroke="black" stroke-opacity="0.35" stroke-width="0.752677"/>
<path d="M501.537 153.474C503.66 153.474 505.381 152.48 505.381 151.254C505.381 150.028 503.66 149.034 501.537 149.034C499.414 149.034 497.693 150.028 497.693 151.254C497.693 152.48 499.414 153.474 501.537 153.474Z" fill="#181818" stroke="white" stroke-opacity="0.35"/>
<path d="M501.536 152.532C503.659 152.532 505.38 151.538 505.38 150.312C505.38 149.086 503.659 148.092 501.536 148.092C499.413 148.092 497.692 149.086 497.692 150.312C497.692 151.538 499.413 152.532 501.536 152.532Z" fill="#181818" stroke="black" stroke-opacity="0.35" stroke-width="0.752677"/>
<path d="M259.878 13.8947C262.001 13.8947 263.722 12.9007 263.722 11.6744C263.722 10.4482 262.001 9.4541 259.878 9.4541C257.755 9.4541 256.034 10.4482 256.034 11.6744C256.034 12.9007 257.755 13.8947 259.878 13.8947Z" fill="#181818" stroke="white" stroke-opacity="0.35"/>
<path d="M259.878 12.9524C262.001 12.9524 263.722 11.9583 263.722 10.732C263.722 9.50577 262.001 8.51172 259.878 8.51172C257.755 8.51172 256.034 9.50577 256.034 10.732C256.034 11.9583 257.755 12.9524 259.878 12.9524Z" fill="#181818" stroke="black" stroke-opacity="0.35" stroke-width="0.752677"/>
<path d="M56.5018 153.071L96.4496 176.5V171.814L56.5018 148.386V153.071Z" fill="#1F1F23" stroke="white" stroke-opacity="0.1" stroke-width="0.484366" stroke-linejoin="round"/>
<path d="M118.502 163.614L96.4496 176.5V171.814L118.502 158.929V163.614Z" fill="#141417" stroke="white" stroke-opacity="0.08" stroke-width="0.484366" stroke-linejoin="round"/>
<path d="M78.4384 135.5L118.502 158.929L96.4496 171.814L56.5018 148.386L78.4384 135.5Z" fill="#27272B" stroke="white" stroke-opacity="0.16" stroke-width="0.484366" stroke-linejoin="round"/>
<path d="M382.499 141.926L273.447 78.9636C265.919 74.6169 253.713 74.6169 246.184 78.9636L137.133 141.926C129.605 146.273 129.605 153.32 137.133 157.667L246.184 220.63C253.713 224.976 265.919 224.976 273.447 220.63L382.499 157.667C390.027 153.32 390.027 146.273 382.499 141.926Z" stroke="white" stroke-opacity="0.16" stroke-width="1.07459"/>
<path d="M382.499 129.333L273.447 66.3703C265.919 62.0237 253.713 62.0237 246.184 66.3703L137.133 129.333C129.605 133.68 129.605 140.727 137.133 145.074L246.184 208.036C253.713 212.383 265.919 212.383 273.447 208.036L382.499 145.074C390.027 140.727 390.027 133.68 382.499 129.333Z" fill="#1C1C1F" stroke="#11A32A" stroke-opacity="0.6" stroke-width="1.07459"/>
<path d="M363.415 132.481L267.995 77.3887C263.478 74.7807 256.154 74.7807 251.637 77.3887L156.217 132.481C151.7 135.089 151.7 139.317 156.217 141.925L251.637 197.018C256.154 199.626 263.478 199.626 267.995 197.018L363.415 141.925C367.932 139.317 367.932 135.089 363.415 132.481Z" fill="#151517" stroke="white" stroke-opacity="0.08" stroke-width="1.07459"/>
<path d="M320.884 101.944C321.788 102.466 323.252 102.466 324.156 101.944C325.059 101.423 325.059 100.577 324.156 100.055C323.252 99.5337 321.788 99.5337 320.884 100.055C319.981 100.577 319.981 101.423 320.884 101.944Z" stroke="white" stroke-opacity="0.22" stroke-width="1.07459"/>
<path d="M320.884 174.351C321.788 174.873 323.252 174.873 324.156 174.351C325.059 173.829 325.059 172.984 324.156 172.462C323.252 171.94 321.788 171.94 320.884 172.462C319.981 172.984 319.981 173.829 320.884 174.351Z" stroke="white" stroke-opacity="0.22" stroke-width="1.07459"/>
<path d="M195.476 101.944C196.379 102.466 197.844 102.466 198.748 101.944C199.651 101.423 199.651 100.577 198.748 100.055C197.844 99.5337 196.379 99.5337 195.476 100.055C194.572 100.577 194.572 101.423 195.476 101.944Z" stroke="white" stroke-opacity="0.22" stroke-width="1.07459"/>
<path d="M195.476 174.351C196.379 174.873 197.844 174.873 198.747 174.351C199.651 173.829 199.651 172.984 198.747 172.462C197.844 171.94 196.379 171.94 195.476 172.462C194.572 172.984 194.572 173.829 195.476 174.351Z" stroke="white" stroke-opacity="0.22" stroke-width="1.07459"/>
<path d="M214.832 163.176C239.676 177.52 279.956 177.52 304.8 163.176C329.643 148.832 329.643 125.575 304.8 111.231C279.956 96.8874 239.676 96.8874 214.832 111.231C189.988 125.575 189.988 148.832 214.832 163.176Z" stroke="#11A32A" stroke-opacity="0.45" stroke-width="1.07459" stroke-dasharray="4.3 5.37"/>
<path d="M221.648 159.241C242.727 171.411 276.904 171.411 297.984 159.241C319.063 147.07 319.063 127.337 297.984 115.167C276.904 102.996 242.727 102.996 221.648 115.167C200.568 127.337 200.568 147.07 221.648 159.241Z" stroke="#11A32A" stroke-opacity="0.8" stroke-width="1.2895"/>
<path d="M254.111 78.887L274.658 90.4999V81.2096L254.111 69.5967V78.887Z" fill="#1F1F23" stroke="white" stroke-opacity="0.1" stroke-width="0.484366" stroke-linejoin="round"/>
<path d="M280.111 87.4031L274.658 90.4999V81.2096L280.111 78.1128V87.4031Z" fill="#141417" stroke="white" stroke-opacity="0.08" stroke-width="0.484366" stroke-linejoin="round"/>
<path d="M259.563 66.5L280.111 78.1129L274.658 81.2097L254.111 69.5968L259.563 66.5Z" fill="#27272B" stroke="white" stroke-opacity="0.16" stroke-width="0.484366" stroke-linejoin="round"/>
<path d="M267.15 82.8356C268.067 82.8356 268.81 82.1077 268.81 81.2098C268.81 80.3119 268.067 79.584 267.15 79.584C266.234 79.584 265.491 80.3119 265.491 81.2098C265.491 82.1077 266.234 82.8356 267.15 82.8356Z" fill="#11A32A"/>
<path d="M245.111 84.403L265.658 96.4998V86.8224L245.111 74.7256V84.403Z" fill="#1F1F23" stroke="white" stroke-opacity="0.1" stroke-width="0.484366" stroke-linejoin="round"/>
<path d="M271.111 93.2741L265.658 96.4999V86.8225L271.111 83.5967V93.2741Z" fill="#141417" stroke="white" stroke-opacity="0.08" stroke-width="0.484366" stroke-linejoin="round"/>
<path d="M250.563 71.5L271.111 83.5968L265.658 86.8226L245.111 74.7258L250.563 71.5Z" fill="#27272B" stroke="white" stroke-opacity="0.16" stroke-width="0.484366" stroke-linejoin="round"/>
<path d="M235.111 89.887L255.579 101.5V92.2096L235.111 80.5967V89.887Z" fill="#1F1F23" stroke="white" stroke-opacity="0.1" stroke-width="0.484366" stroke-linejoin="round"/>
<path d="M261.11 98.4031L255.579 101.5V92.2096L261.11 89.1128V98.4031Z" fill="#141417" stroke="white" stroke-opacity="0.08" stroke-width="0.484366" stroke-linejoin="round"/>
<path d="M240.563 77.5L261.111 89.1129L255.579 92.2097L235.111 80.5968L240.563 77.5Z" fill="#27272B" stroke="white" stroke-opacity="0.16" stroke-width="0.484366" stroke-linejoin="round"/>
<path d="M337.111 134.5L349.651 141.5V127.5L337.111 120.5V134.5Z" fill="#1F1F23" stroke="white" stroke-opacity="0.1" stroke-width="0.484366" stroke-linejoin="round"/>
<path d="M362.111 134.5L349.651 141.5V127.5L362.111 120.5V134.5Z" fill="#141417" stroke="white" stroke-opacity="0.08" stroke-width="0.484366" stroke-linejoin="round"/>
<path d="M349.651 113.5L362.111 120.5L349.651 127.5L337.111 120.5L349.651 113.5Z" fill="#27272B" stroke="white" stroke-opacity="0.16" stroke-width="0.484366" stroke-linejoin="round"/>
<path d="M349.651 129.133C350.583 129.133 351.339 128.402 351.339 127.5C351.339 126.598 350.583 125.867 349.651 125.867C348.718 125.867 347.963 126.598 347.963 127.5C347.963 128.402 348.718 129.133 349.651 129.133Z" fill="#11A32A"/>
<path d="M321.111 144.3L333.611 151.5V141.9L321.111 134.7V144.3Z" fill="#1F1F23" stroke="white" stroke-opacity="0.1" stroke-width="0.484366" stroke-linejoin="round"/>
<path d="M346.111 144.3L333.611 151.5V141.9L346.111 134.7V144.3Z" fill="#141417" stroke="white" stroke-opacity="0.08" stroke-width="0.484366" stroke-linejoin="round"/>
<path d="M333.611 127.5L346.111 134.7L333.611 141.9L321.111 134.7L333.611 127.5Z" fill="#27272B" stroke="white" stroke-opacity="0.16" stroke-width="0.484366" stroke-linejoin="round"/>
<path d="M200.111 136.99L260.111 171.5V160.52L200.111 126.01V136.99Z" fill="#1F1F23" stroke="white" stroke-opacity="0.1" stroke-width="0.484366" stroke-linejoin="round"/>
<path d="M320.111 136.99L260.111 171.5V160.52L320.111 126.01V136.99Z" fill="#141417" stroke="white" stroke-opacity="0.08" stroke-width="0.484366" stroke-linejoin="round"/>
<path d="M260.111 91.5L320.111 126.01L260.111 160.52L200.111 126.01L260.111 91.5Z" fill="#27272B" stroke="white" stroke-opacity="0.16" stroke-width="0.484366" stroke-linejoin="round"/>
<path d="M222.111 126.188L260.111 148.5V142.125L222.111 119.812V126.188Z" fill="#1F1F23" stroke="white" stroke-opacity="0.1" stroke-width="0.484366" stroke-linejoin="round"/>
<path d="M298.111 126.188L260.111 148.5V142.125L298.111 119.812V126.188Z" fill="#141417" stroke="white" stroke-opacity="0.08" stroke-width="0.484366" stroke-linejoin="round"/>
<path d="M260.111 97.5L298.111 119.813L260.111 142.125L222.111 119.813L260.111 97.5Z" fill="#18241B" stroke="#11A32A" stroke-opacity="0.7" stroke-width="0.484366" stroke-linejoin="round"/>
<path d="M242.111 186.937L259.572 197.5V192.625L242.111 182.062V186.937Z" fill="#1F1F23" stroke="white" stroke-opacity="0.1" stroke-width="0.484366" stroke-linejoin="round"/>
<path d="M277.111 186.937L259.572 197.5V192.625L277.111 182.062V186.937Z" fill="#141417" stroke="white" stroke-opacity="0.08" stroke-width="0.484366" stroke-linejoin="round"/>
<path d="M259.572 171.5L277.111 182.062L259.572 192.625L242.111 182.062L259.572 171.5Z" fill="#27272B" stroke="white" stroke-opacity="0.16" stroke-width="0.484366" stroke-linejoin="round"/>
<path d="M250.709 113.342C250.092 112.985 249.092 112.985 248.475 113.342C247.859 113.698 247.859 114.275 248.475 114.631L249.592 113.986L250.709 113.342ZM268.923 126.437C269.539 126.793 270.539 126.793 271.156 126.437C271.773 126.08 271.773 125.503 271.156 125.147L270.039 125.792L268.923 126.437ZM249.592 113.986L248.475 114.631L268.923 126.437L270.039 125.792L271.156 125.147L250.709 113.342L249.592 113.986Z" fill="#11A32A"/>
<path d="M271.156 114.631C271.773 114.275 271.773 113.698 271.156 113.342C270.54 112.985 269.54 112.985 268.923 113.342L270.04 113.986L271.156 114.631ZM248.476 125.147C247.859 125.503 247.859 126.08 248.476 126.437C249.093 126.793 250.092 126.793 250.709 126.437L249.592 125.792L248.476 125.147ZM270.04 113.986L268.923 113.342L248.476 125.147L249.592 125.792L250.709 126.437L271.156 114.631L270.04 113.986Z" fill="#11A32A"/>
<path d="M261.395 111.231C261.395 110.728 260.688 110.32 259.816 110.32C258.944 110.32 258.237 110.728 258.237 111.231H259.816H261.395ZM258.237 128.546C258.237 129.05 258.944 129.458 259.816 129.458C260.688 129.458 261.395 129.05 261.395 128.546H259.816H258.237ZM259.816 111.231H258.237L258.237 128.546H259.816H261.395L261.395 111.231H259.816Z" fill="#11A32A"/>
<path d="M244.821 118.977C243.949 118.977 243.242 119.385 243.242 119.889C243.242 120.392 243.949 120.801 244.821 120.801L244.821 119.889L244.821 118.977ZM274.81 120.801C275.683 120.801 276.39 120.392 276.39 119.889C276.39 119.385 275.683 118.977 274.81 118.977L274.81 119.889L274.81 120.801ZM244.821 119.889L244.821 120.801H274.81L274.81 119.889L274.81 118.977H244.821L244.821 119.889Z" fill="#11A32A"/>
<path d="M257.502 36.887L278.049 48.4999V39.2096L257.502 27.5967V36.887Z" fill="#1F1F23" stroke="white" stroke-opacity="0.1" stroke-width="0.484366" stroke-linejoin="round"/>
<path d="M283.502 45.4031L278.049 48.4999V39.2096L283.502 36.1128V45.4031Z" fill="#141417" stroke="white" stroke-opacity="0.08" stroke-width="0.484366" stroke-linejoin="round"/>
<path d="M262.955 24.5L283.502 36.1129L278.049 39.2097L257.502 27.5968L262.955 24.5Z" fill="#27272B" stroke="white" stroke-opacity="0.16" stroke-width="0.484366" stroke-linejoin="round"/>
<path d="M248.502 42.371L269.049 53.5V44.5968L248.502 33.4678V42.371Z" fill="#1F1F23" stroke="white" stroke-opacity="0.1" stroke-width="0.484366" stroke-linejoin="round"/>
<path d="M274.502 50.5321L269.049 53.4999V44.5966L274.502 41.6289V50.5321Z" fill="#141417" stroke="white" stroke-opacity="0.08" stroke-width="0.484366" stroke-linejoin="round"/>
<path d="M253.955 30.5L274.502 41.629L269.049 44.5968L248.502 33.4677L253.955 30.5Z" fill="#27272B" stroke="white" stroke-opacity="0.16" stroke-width="0.484366" stroke-linejoin="round"/>
<path d="M239.502 47.887L259.97 59.4999V50.2096L239.502 38.5967V47.887Z" fill="#1F1F23" stroke="white" stroke-opacity="0.1" stroke-width="0.484366" stroke-linejoin="round"/>
<path d="M265.502 56.4031L259.97 59.4999V50.2096L265.502 47.1128V56.4031Z" fill="#141417" stroke="white" stroke-opacity="0.08" stroke-width="0.484366" stroke-linejoin="round"/>
<path d="M244.955 35.5L265.502 47.1129L259.97 50.2097L239.502 38.5968L244.955 35.5Z" fill="#27272B" stroke="white" stroke-opacity="0.16" stroke-width="0.484366" stroke-linejoin="round"/>
<path d="M424.502 152L442.56 162.5V141.5L424.502 131V152Z" fill="#1F1F23" stroke="white" stroke-opacity="0.1" stroke-width="0.484366" stroke-linejoin="round"/>
<path d="M460.502 152L442.56 162.5V141.5L460.502 131V152Z" fill="#141417" stroke="white" stroke-opacity="0.08" stroke-width="0.484366" stroke-linejoin="round"/>
<path d="M442.56 120.5L460.502 131L442.56 141.5L424.502 131L442.56 120.5Z" fill="#27272B" stroke="white" stroke-opacity="0.16" stroke-width="0.484366" stroke-linejoin="round"/>
<path d="M400.502 166L418.502 176.5V162.5L400.502 152V166Z" fill="#1F1F23" stroke="white" stroke-opacity="0.1" stroke-width="0.484366" stroke-linejoin="round"/>
<path d="M436.502 166L418.502 176.5V162.5L436.502 152V166Z" fill="#141417" stroke="white" stroke-opacity="0.08" stroke-width="0.484366" stroke-linejoin="round"/>
<path d="M418.502 141.5L436.502 152L418.502 162.5L400.502 152L418.502 141.5Z" fill="#27272B" stroke="white" stroke-opacity="0.16" stroke-width="0.484366" stroke-linejoin="round"/>
<path d="M241.502 253.469L267.444 268.5V261.562L241.502 246.531V253.469Z" fill="#1F1F23" stroke="white" stroke-opacity="0.1" stroke-width="0.484366" stroke-linejoin="round"/>
<path d="M293.502 253.469L267.444 268.5V261.562L293.502 246.531V253.469Z" fill="#141417" stroke="white" stroke-opacity="0.08" stroke-width="0.484366" stroke-linejoin="round"/>
<path d="M267.444 231.5L293.502 246.531L267.444 261.562L241.502 246.531L267.444 231.5Z" fill="#27272B" stroke="white" stroke-opacity="0.16" stroke-width="0.484366" stroke-linejoin="round"/>
</svg>
