<svg width="273" height="170" viewBox="0 0 273 170" fill="none" xmlns="http://www.w3.org/2000/svg">
<path d="M258.997 83.4262L149.945 20.4636C142.417 16.1169 130.211 16.1169 122.683 20.4636L13.6314 83.4262C6.10297 87.7729 6.10297 94.8202 13.6314 99.1669L122.683 162.13C130.211 166.476 142.417 166.476 149.945 162.13L258.997 99.1669C266.525 94.8202 266.525 87.7729 258.997 83.4262Z" stroke="white" stroke-opacity="0.16" stroke-width="1.07459"/>
<path d="M258.997 70.833L149.945 7.87033C142.417 3.52367 130.211 3.52367 122.683 7.87033L13.6314 70.833C6.10297 75.1796 6.10297 82.227 13.6314 86.5736L122.683 149.536C130.211 153.883 142.417 153.883 149.945 149.536L258.997 86.5736C266.525 82.227 266.525 75.1796 258.997 70.833Z" fill="#1C1C1F" stroke="#11A32A" stroke-opacity="0.6" stroke-width="1.07459"/>
<path d="M239.913 73.981L144.493 18.8887C139.976 16.2807 132.652 16.2807 128.135 18.8887L32.7154 73.981C28.1983 76.589 28.1983 80.8174 32.7154 83.4254L128.135 138.518C132.652 141.126 139.976 141.126 144.493 138.518L239.913 83.4254C244.43 80.8174 244.43 76.589 239.913 73.981Z" fill="#151517" stroke="white" stroke-opacity="0.08" stroke-width="1.07459"/>
<path d="M197.383 43.4442C198.286 43.9658 199.751 43.9658 200.654 43.4442C201.558 42.9226 201.558 42.0769 200.654 41.5553C199.751 41.0337 198.286 41.0337 197.383 41.5553C196.479 42.0769 196.479 42.9226 197.383 43.4442Z" stroke="white" stroke-opacity="0.22" stroke-width="1.07459"/>
<path d="M197.383 115.851C198.286 116.373 199.751 116.373 200.654 115.851C201.558 115.329 201.558 114.484 200.654 113.962C199.751 113.44 198.286 113.44 197.383 113.962C196.479 114.484 196.479 115.329 197.383 115.851Z" stroke="white" stroke-opacity="0.22" stroke-width="1.07459"/>
<path d="M71.9741 43.4442C72.8776 43.9658 74.3423 43.9658 75.2457 43.4442C76.1492 42.9226 76.1492 42.0769 75.2457 41.5553C74.3423 41.0337 72.8775 41.0337 71.9741 41.5553C71.0707 42.0769 71.0707 42.9226 71.9741 43.4442Z" stroke="white" stroke-opacity="0.22" stroke-width="1.07459"/>
<path d="M71.9741 115.851C72.8775 116.373 74.3423 116.373 75.2457 115.851C76.1492 115.329 76.1492 114.484 75.2457 113.962C74.3423 113.44 72.8775 113.44 71.9741 113.962C71.0707 114.484 71.0707 115.329 71.9741 115.851Z" stroke="white" stroke-opacity="0.22" stroke-width="1.07459"/>
<path d="M91.3304 104.676C116.174 119.02 156.454 119.02 181.298 104.676C206.142 90.3315 206.142 67.0754 181.298 52.7314C156.454 38.3874 116.174 38.3874 91.3304 52.7314C66.4866 67.0754 66.4866 90.3315 91.3304 104.676Z" stroke="#11A32A" stroke-opacity="0.45" stroke-width="1.07459" stroke-dasharray="4.3 5.37"/>
<path d="M98.1461 100.741C119.226 112.911 153.402 112.911 174.482 100.741C195.562 88.57 195.562 68.8375 174.482 56.6668C153.402 44.4961 119.226 44.4961 98.1461 56.6668C77.0666 68.8375 77.0666 88.57 98.1461 100.741Z" stroke="#11A32A" stroke-opacity="0.8" stroke-width="1.2895"/>
<path d="M130.609 20.387L151.156 31.9999V22.7096L130.609 11.0967V20.387Z" fill="#1F1F23" stroke="white" stroke-opacity="0.1" stroke-width="0.484366" stroke-linejoin="round"/>
<path d="M156.609 28.9031L151.156 31.9999V22.7096L156.609 19.6128V28.9031Z" fill="#141417" stroke="white" stroke-opacity="0.08" stroke-width="0.484366" stroke-linejoin="round"/>
<path d="M136.062 8L156.609 19.6129L151.156 22.7097L130.609 11.0968L136.062 8Z" fill="#27272B" stroke="white" stroke-opacity="0.16" stroke-width="0.484366" stroke-linejoin="round"/>
<path d="M143.648 24.3356C144.565 24.3356 145.308 23.6077 145.308 22.7098C145.308 21.8119 144.565 21.084 143.648 21.084C142.732 21.084 141.989 21.8119 141.989 22.7098C141.989 23.6077 142.732 24.3356 143.648 24.3356Z" fill="#11A32A"/>
<path d="M121.609 25.903L142.156 37.9998V28.3224L121.609 16.2256V25.903Z" fill="#1F1F23" stroke="white" stroke-opacity="0.1" stroke-width="0.484366" stroke-linejoin="round"/>
<path d="M147.609 34.7741L142.156 37.9999V28.3225L147.609 25.0967V34.7741Z" fill="#141417" stroke="white" stroke-opacity="0.08" stroke-width="0.484366" stroke-linejoin="round"/>
<path d="M127.062 13L147.609 25.0968L142.156 28.3226L121.609 16.2258L127.062 13Z" fill="#27272B" stroke="white" stroke-opacity="0.16" stroke-width="0.484366" stroke-linejoin="round"/>
<path d="M111.609 31.387L132.077 42.9999V33.7096L111.609 22.0967V31.387Z" fill="#1F1F23" stroke="white" stroke-opacity="0.1" stroke-width="0.484366" stroke-linejoin="round"/>
<path d="M137.609 39.9031L132.077 42.9999V33.7096L137.609 30.6128V39.9031Z" fill="#141417" stroke="white" stroke-opacity="0.08" stroke-width="0.484366" stroke-linejoin="round"/>
<path d="M117.062 19L137.609 30.6129L132.077 33.7097L111.609 22.0968L117.062 19Z" fill="#27272B" stroke="white" stroke-opacity="0.16" stroke-width="0.484366" stroke-linejoin="round"/>
<path d="M213.609 76L226.149 83V69L213.609 62V76Z" fill="#1F1F23" stroke="white" stroke-opacity="0.1" stroke-width="0.484366" stroke-linejoin="round"/>
<path d="M238.609 76L226.149 83V69L238.609 62V76Z" fill="#141417" stroke="white" stroke-opacity="0.08" stroke-width="0.484366" stroke-linejoin="round"/>
<path d="M226.149 55L238.609 62L226.149 69L213.609 62L226.149 55Z" fill="#27272B" stroke="white" stroke-opacity="0.16" stroke-width="0.484366" stroke-linejoin="round"/>
<path d="M226.149 70.6334C227.081 70.6334 227.837 69.9021 227.837 69C227.837 68.098 227.081 67.3667 226.149 67.3667C225.217 67.3667 224.461 68.098 224.461 69C224.461 69.9021 225.217 70.6334 226.149 70.6334Z" fill="#11A32A"/>
<path d="M197.609 85.8002L210.109 93.0002V83.4002L197.609 76.2002V85.8002Z" fill="#1F1F23" stroke="white" stroke-opacity="0.1" stroke-width="0.484366" stroke-linejoin="round"/>
<path d="M222.609 85.8002L210.109 93.0002V83.4002L222.609 76.2002V85.8002Z" fill="#141417" stroke="white" stroke-opacity="0.08" stroke-width="0.484366" stroke-linejoin="round"/>
<path d="M210.109 69L222.609 76.2L210.109 83.4L197.609 76.2L210.109 69Z" fill="#27272B" stroke="white" stroke-opacity="0.16" stroke-width="0.484366" stroke-linejoin="round"/>
<path d="M76.6088 78.4902L136.609 113V102.02L76.6088 67.5098V78.4902Z" fill="#1F1F23" stroke="white" stroke-opacity="0.1" stroke-width="0.484366" stroke-linejoin="round"/>
<path d="M196.609 78.4902L136.609 113V102.02L196.609 67.5098V78.4902Z" fill="#141417" stroke="white" stroke-opacity="0.08" stroke-width="0.484366" stroke-linejoin="round"/>
<path d="M136.609 33L196.609 67.5098L136.609 102.02L76.6088 67.5098L136.609 33Z" fill="#27272B" stroke="white" stroke-opacity="0.16" stroke-width="0.484366" stroke-linejoin="round"/>
<path d="M98.6088 67.6875L136.609 90V83.625L98.6088 61.3125V67.6875Z" fill="#1F1F23" stroke="white" stroke-opacity="0.1" stroke-width="0.484366" stroke-linejoin="round"/>
<path d="M174.609 67.6875L136.609 90V83.625L174.609 61.3125V67.6875Z" fill="#141417" stroke="white" stroke-opacity="0.08" stroke-width="0.484366" stroke-linejoin="round"/>
<path d="M136.609 39L174.609 61.3125L136.609 83.625L98.6088 61.3125L136.609 39Z" fill="#18241B" stroke="#11A32A" stroke-opacity="0.7" stroke-width="0.484366" stroke-linejoin="round"/>
<path d="M118.609 128.437L136.07 139V134.125L118.609 123.562V128.437Z" fill="#1F1F23" stroke="white" stroke-opacity="0.1" stroke-width="0.484366" stroke-linejoin="round"/>
<path d="M153.609 128.437L136.07 139V134.125L153.609 123.562V128.437Z" fill="#141417" stroke="white" stroke-opacity="0.08" stroke-width="0.484366" stroke-linejoin="round"/>
<path d="M136.07 113L153.609 123.562L136.07 134.125L118.609 123.562L136.07 113Z" fill="#27272B" stroke="white" stroke-opacity="0.16" stroke-width="0.484366" stroke-linejoin="round"/>
<path d="M127.207 54.8416C126.59 54.4855 125.59 54.4855 124.974 54.8416C124.357 55.1977 124.357 55.775 124.974 56.1311L126.09 55.4863L127.207 54.8416ZM145.421 67.9366C146.037 68.2927 147.037 68.2927 147.654 67.9366C148.271 67.5805 148.271 67.0032 147.654 66.6471L146.537 67.2918L145.421 67.9366ZM126.09 55.4863L124.974 56.1311L145.421 67.9366L146.537 67.2918L147.654 66.6471L127.207 54.8416L126.09 55.4863Z" fill="#11A32A"/>
<path d="M147.655 56.1311C148.271 55.775 148.271 55.1977 147.655 54.8416C147.038 54.4855 146.038 54.4855 145.421 54.8416L146.538 55.4863L147.655 56.1311ZM124.974 66.6471C124.357 67.0032 124.357 67.5805 124.974 67.9366C125.591 68.2927 126.591 68.2927 127.207 67.9366L126.091 67.2918L124.974 66.6471ZM146.538 55.4863L145.421 54.8416L124.974 66.6471L126.091 67.2918L127.207 67.9366L147.655 56.1311L146.538 55.4863Z" fill="#11A32A"/>
<path d="M137.893 52.7314C137.893 52.2279 137.186 51.8196 136.314 51.8196C135.442 51.8196 134.735 52.2279 134.735 52.7314H136.314H137.893ZM134.735 70.0462C134.735 70.5498 135.442 70.958 136.314 70.958C137.186 70.958 137.893 70.5498 137.893 70.0462H136.314H134.735ZM136.314 52.7314H134.735L134.735 70.0462H136.314H137.893L137.893 52.7314H136.314Z" fill="#11A32A"/>
<path d="M121.32 60.477C120.447 60.477 119.74 60.8852 119.74 61.3888C119.74 61.8924 120.447 62.3006 121.32 62.3006L121.32 61.3888L121.32 60.477ZM151.309 62.3006C152.181 62.3006 152.888 61.8924 152.888 61.3888C152.888 60.8852 152.181 60.477 151.309 60.477L151.309 61.3888L151.309 62.3006ZM121.32 61.3888L121.32 62.3006H151.309L151.309 61.3888L151.309 60.477H121.32L121.32 61.3888Z" fill="#11A32A"/>
</svg>
