<svg width="950" height="901" viewBox="0 0 950 901" fill="none" xmlns="http://www.w3.org/2000/svg">
<g filter="url(#filter0_f_445_4989)">
<path d="M268.868 363.263C268.868 310.541 233.706 264.473 216.125 248.029C133.621 155.767 387.538 205.476 528.812 320.333C670.087 435.19 515.627 511.259 387.538 606.91C259.449 702.562 268.868 429.164 268.868 363.263Z" fill="url(#paint0_linear_445_4989)" fill-opacity="0.16"/>
</g>
<g filter="url(#filter1_f_445_4989)">
<path d="M661.089 381.645C713.653 377.285 756.677 338.432 771.619 319.551C856.785 229.695 828.216 486.865 725.381 637.161C622.546 787.457 533.934 639.81 427.978 520.065C322.023 400.32 595.384 387.096 661.089 381.645Z" fill="url(#paint1_linear_445_4989)" fill-opacity="0.18"/>
</g>
<defs>
<filter id="filter0_f_445_4989" x="0" y="0" width="785" height="827" filterUnits="userSpaceOnUse" color-interpolation-filters="sRGB">
<feFlood flood-opacity="0" result="BackgroundImageFix"/>
<feBlend mode="normal" in="SourceGraphic" in2="BackgroundImageFix" result="shape"/>
<feGaussianBlur stdDeviation="100" result="effect1_foregroundBlur_445_4989"/>
</filter>
<filter id="filter1_f_445_4989" x="203.846" y="100.964" width="817.907" height="799.819" filterUnits="userSpaceOnUse" color-interpolation-filters="sRGB">
<feFlood flood-opacity="0" result="BackgroundImageFix"/>
<feBlend mode="normal" in="SourceGraphic" in2="BackgroundImageFix" result="shape"/>
<feGaussianBlur stdDeviation="100" result="effect1_foregroundBlur_445_4989"/>
</filter>
<linearGradient id="paint0_linear_445_4989" x1="166.774" y1="200.204" x2="495.889" y2="573.902" gradientUnits="userSpaceOnUse">
<stop stop-color="#B6F1C0"/>
<stop offset="1" stop-color="#11A32A"/>
</linearGradient>
<linearGradient id="paint1_linear_445_4989" x1="815.222" y1="266.411" x2="469.988" y2="625.457" gradientUnits="userSpaceOnUse">
<stop stop-color="#11A32A"/>
<stop offset="1" stop-color="#8FC6FF"/>
</linearGradient>
</defs>
</svg>
