<svg width="174" height="28" viewBox="0 0 174 28" fill="none" xmlns="http://www.w3.org/2000/svg">
<path d="M72.4026 6.50703V17.833C72.4026 18.7947 72.5919 19.4802 72.9705 19.8894C73.3592 20.2987 73.9424 20.5033 74.72 20.5033C75.4566 20.5033 76.1677 20.2833 76.8532 19.8434C77.5387 19.4034 78.0809 18.8663 78.48 18.232V6.50703H81.9176V22.7132H78.9557L78.7408 20.6414C78.1372 21.4497 77.375 22.0687 76.4542 22.4984C75.5334 22.9179 74.5921 23.1276 73.6304 23.1276C72.065 23.1276 70.8935 22.6979 70.116 21.8385C69.3486 20.9688 68.965 19.7769 68.965 18.2627V6.50703H72.4026Z" fill="#11A32A"/>
<path d="M93.2623 20.4879C94.3365 20.4879 95.1908 20.2987 95.8252 19.9201C96.4595 19.5313 96.7767 18.9993 96.7767 18.3241C96.7767 17.8841 96.6846 17.5107 96.5004 17.2037C96.3163 16.8866 95.9479 16.6001 95.3955 16.3443C94.843 16.0783 94.004 15.8021 92.8786 15.5156C91.8145 15.2393 90.8784 14.912 90.0701 14.5334C89.2721 14.1548 88.6531 13.6637 88.2132 13.0601C87.7732 12.4565 87.5533 11.6789 87.5533 10.7274C87.5533 9.79636 87.8141 8.98298 88.3359 8.28726C88.8577 7.59154 89.6046 7.04929 90.5766 6.6605C91.5588 6.27172 92.7098 6.07732 94.0296 6.07732C95.3903 6.07732 96.5772 6.25637 97.59 6.61446C98.6029 6.97255 99.4675 7.41761 100.184 7.94963L98.7411 10.1135C98.1067 9.69405 97.411 9.3513 96.6539 9.08529C95.907 8.81928 95.0629 8.68628 94.1217 8.68628C93.0269 8.68628 92.2391 8.84997 91.7583 9.17737C91.2876 9.50477 91.0523 9.9396 91.0523 10.4818C91.0523 10.8809 91.17 11.2185 91.4053 11.4947C91.6508 11.7607 92.0703 12.0114 92.6637 12.2467C93.2571 12.4718 94.0961 12.7378 95.1806 13.0448C96.2344 13.3312 97.1501 13.6689 97.9277 14.0576C98.7155 14.4464 99.3242 14.9631 99.7539 15.6077C100.194 16.242 100.414 17.0707 100.414 18.0938C100.414 19.2602 100.076 20.2168 99.401 20.9637C98.7359 21.7003 97.8561 22.2477 96.7613 22.6058C95.6768 22.9537 94.5105 23.1276 93.2623 23.1276C91.7583 23.1276 90.4589 22.9127 89.3642 22.483C88.2694 22.0431 87.3486 21.4957 86.6018 20.8409L88.428 18.7538C89.0624 19.2653 89.7888 19.6848 90.6073 20.0122C91.4258 20.3294 92.3108 20.4879 93.2623 20.4879Z" fill="#11A32A"/>
<path d="M108.628 15.7151C108.699 16.8201 108.935 17.7255 109.334 18.4315C109.733 19.1272 110.254 19.6388 110.899 19.9662C111.554 20.2936 112.27 20.4573 113.048 20.4573C113.846 20.4573 114.582 20.3345 115.258 20.0889C115.933 19.8434 116.613 19.4955 117.299 19.0454L118.787 21.1018C118.03 21.7157 117.145 22.2068 116.132 22.5751C115.119 22.9434 114.035 23.1276 112.879 23.1276C111.201 23.1276 109.779 22.7695 108.612 22.0533C107.456 21.3371 106.576 20.3396 105.973 19.0607C105.369 17.7818 105.067 16.3034 105.067 14.6255C105.067 12.9987 105.364 11.5459 105.957 10.267C106.551 8.97786 107.4 7.95986 108.505 7.21299C109.61 6.45588 110.93 6.07732 112.464 6.07732C113.907 6.07732 115.145 6.40472 116.178 7.05952C117.222 7.71431 118.025 8.64535 118.588 9.85263C119.161 11.0497 119.447 12.4923 119.447 14.1804C119.447 14.4567 119.437 14.7329 119.417 15.0091C119.406 15.2752 119.391 15.5105 119.37 15.7151H108.628ZM112.495 8.62489C111.421 8.62489 110.531 9.00856 109.825 9.7759C109.129 10.5432 108.725 11.7403 108.612 13.367H116.117C116.086 11.8426 115.759 10.6711 115.135 9.85263C114.521 9.03413 113.641 8.62489 112.495 8.62489Z" fill="#11A32A"/>
<path d="M131.989 20.3038C132.746 20.3038 133.452 20.1759 134.107 19.9201C134.762 19.6541 135.386 19.3114 135.979 18.8919L137.575 21.1018C136.869 21.7055 136.01 22.1966 134.997 22.5751C133.994 22.9434 132.956 23.1276 131.881 23.1276C130.224 23.1276 128.807 22.7797 127.63 22.084C126.454 21.3781 125.553 20.3908 124.929 19.1221C124.305 17.8534 123.993 16.375 123.993 14.6869C123.993 13.0396 124.305 11.5715 124.929 10.2823C125.564 8.98298 126.474 7.95986 127.661 7.21299C128.848 6.45588 130.275 6.07732 131.943 6.07732C133.048 6.07732 134.066 6.24102 134.997 6.56842C135.928 6.89582 136.782 7.3818 137.56 8.02636L135.979 10.1903C135.345 9.75032 134.695 9.4178 134.03 9.19272C133.375 8.9574 132.7 8.83974 132.004 8.83974C130.725 8.83974 129.677 9.31038 128.858 10.2516C128.05 11.1929 127.646 12.6713 127.646 14.6869C127.646 16.0374 127.83 17.127 128.198 17.9557C128.577 18.7742 129.093 19.3727 129.748 19.7513C130.403 20.1196 131.15 20.3038 131.989 20.3038Z" fill="#11A32A"/>
<path d="M156.117 21.8538C155.524 22.2324 154.813 22.5393 153.984 22.7746C153.155 23.0099 152.291 23.1276 151.391 23.1276C149.508 23.1276 148.076 22.6416 147.093 21.6696C146.122 20.6875 145.636 19.3983 145.636 17.8023V9.00856H142.029V6.50703H145.636V2.88519L149.073 2.47083V6.50703H154.537L154.153 9.00856H149.073V17.7716C149.073 18.6412 149.288 19.2909 149.718 19.7206C150.158 20.1401 150.874 20.3498 151.866 20.3498C152.46 20.3498 153.007 20.2782 153.508 20.135C154.01 19.9917 154.465 19.8076 154.874 19.5825L156.117 21.8538Z" fill="#11A32A"/>
<path d="M168.107 0V18.2934C168.107 19.0402 168.332 19.5723 168.782 19.8894C169.242 20.1964 169.836 20.3498 170.562 20.3498C171.033 20.3498 171.478 20.2987 171.897 20.1964C172.317 20.094 172.726 19.9662 173.125 19.8127L174 22.2068C173.519 22.4523 172.925 22.6672 172.22 22.8514C171.524 23.0355 170.726 23.1276 169.825 23.1276C168.199 23.1276 166.93 22.6723 166.019 21.7617C165.119 20.8409 164.669 19.5825 164.669 17.9864V2.53222H159.773V0H168.107Z" fill="#11A32A"/>
<path d="M41.3675 0.94594C41.3675 0.423511 41.791 0 42.3134 0C42.8359 0 43.2594 0.423512 43.2594 0.945941V27.0539C43.2594 27.5763 42.8359 27.9999 42.3134 27.9999C41.791 27.9999 41.3675 27.5763 41.3675 27.0539V0.94594Z" fill="#11A32A"/>
<path d="M50.4477 3.69587C50.8171 3.32646 51.4161 3.32646 51.7855 3.69587C52.1549 4.06528 52.1549 4.66422 51.7855 5.03363L35.5327 21.2864C35.1633 21.6558 34.5643 21.6558 34.1949 21.2864C33.8255 20.917 33.8255 20.3181 34.1949 19.9486L50.4477 3.69587Z" fill="#11A32A"/>
<path d="M52.5331 22.6806C52.9025 23.05 52.9025 23.6489 52.5331 24.0184C52.1636 24.3878 51.5647 24.3878 51.1953 24.0184L33.9582 6.78128C33.5888 6.41187 33.5888 5.81293 33.9582 5.44352C34.3276 5.07411 34.9266 5.07411 35.296 5.44352L52.5331 22.6806Z" fill="#11A32A"/>
<path d="M54.29 12.8648C54.8124 12.8648 55.2359 13.2883 55.2359 13.8107C55.2359 14.3332 54.8124 14.7567 54.29 14.7567L33.4793 14.7567C32.9568 14.7567 32.5333 14.3332 32.5333 13.8107C32.5333 13.2883 32.9568 12.8648 33.4793 12.8648L54.29 12.8648Z" fill="#11A32A"/>
<path d="M23.7648 12.4332L13.6966 19.1365C12.9538 19.6311 12.1574 18.8807 11.9178 17.4605L10.9449 11.6935C10.7053 10.2732 9.90886 9.52283 9.16603 10.0175L1.00011 15.4543" stroke="#11A32A" stroke-width="2" stroke-linecap="round" stroke-linejoin="round"/>
</svg>
