<svg width="165" height="109" viewBox="0 0 165 109" fill="none" xmlns="http://www.w3.org/2000/svg">
<path d="M0.524491 1.75781C0.524491 8.13212 0.424507 17.9568 0.628576 33.2267C0.832644 48.4965 1.24078 72.4688 1.50707 85.505C1.88544 99.9148 2.03126 102.249 2.09686 103.964C2.13211 104.76 2.17134 105.406 2.35185 107.87" stroke="#3A3A3E" stroke-opacity="0.6" stroke-linecap="round" stroke-linejoin="round"/>
<path d="M3.55479 106.28C8.06438 106.28 12.574 106.28 38.4072 106.174C64.2405 106.068 111.261 105.855 135.791 105.63C160.322 105.405 160.938 105.173 161.435 105.012C162.287 104.735 163.205 104.68 164.039 104.294C164.751 103.964 164.22 101.406 163.794 85.5743C163.394 70.6838 163.065 41.8417 162.807 26.5398C162.534 10.3395 162.42 7.0711 162.233 3.43835C162.165 2.1191 161.671 2.00414 160.977 2.18978C156.702 3.33385 153.115 3.53243 150.119 2.83289C147.609 2.24695 143.106 1.00993 119.613 0.636178C96.1207 0.262428 53.7785 0.742855 31.7588 1.06036C9.7391 1.37786 9.35242 1.825 8.76175 1.825C5.54223 1.825 3.80148 1.71187 3.03479 1.825C2.64821 1.8802 1.84447 1.5196 0.527344 1.7596" stroke="#3A3A3E" stroke-opacity="0.6" stroke-linecap="round" stroke-linejoin="round"/>
</svg>
