<svg width="37" height="42" viewBox="0 0 37 42" fill="none" xmlns="http://www.w3.org/2000/svg">
<path d="M1.34254 6.70898C1.10536 10.741 0.986775 27.3432 1.46113 35.17" stroke="#3A3A3E" stroke-width="1.5" stroke-linecap="round" stroke-linejoin="round"/>
<path d="M35.0212 7.06445C35.3769 11.3336 35.4955 27.9359 34.9026 35.5255" stroke="#3A3A3E" stroke-width="1.5" stroke-linecap="round" stroke-linejoin="round"/>
<path d="M0.750244 34.8145C2.1733 39.3208 10.4744 40.8624 18.4198 40.7438C26.4838 40.6253 34.0734 39.2022 35.615 34.933" stroke="#3A3A3E" stroke-width="1.5" stroke-linecap="round" stroke-linejoin="round"/>
<path d="M1.81665 15.4848C4.66276 18.8053 10.8293 19.6354 18.4189 19.5168C26.0085 19.3982 31.9379 18.5681 34.5469 15.3662" stroke="#3A3A3E" stroke-width="1.5" stroke-linecap="round" stroke-linejoin="round"/>
<path d="M1.81665 25.0903C4.66276 28.4107 10.8293 29.2408 18.4189 29.1222C26.0085 29.0037 31.9379 28.1735 34.5469 24.9717" stroke="#3A3A3E" stroke-width="1.5" stroke-linecap="round" stroke-linejoin="round"/>
<path d="M26.01 22.1259C27.6702 21.5329 30.6349 21.2958 32.1766 21.6515C32.6509 21.8294 32.6509 22.3038 32.1766 22.4816C30.6349 22.8374 27.6702 22.7188 26.01 22.3631V22.1259Z" fill="#11A32A" fill-opacity="0.6"/>
<path d="M26.01 31.8505C27.6702 31.2576 30.6349 31.0204 32.1766 31.3761C32.6509 31.554 32.6509 32.0284 32.1766 32.2063C30.6349 32.562 27.6702 32.4434 26.01 32.0877V31.8505Z" fill="#11A32A" fill-opacity="0.6"/>
<path d="M26.01 34.4589C27.6702 33.8659 30.6349 33.6288 32.1766 33.9845C32.6509 34.1624 32.6509 34.6368 32.1766 34.8147C30.6349 35.1704 27.6702 35.0518 26.01 34.6961V34.4589Z" fill="#11A32A" fill-opacity="0.6"/>
<path d="M4.42603 3.98185C6.32343 2.32162 9.64388 1.49151 13.4387 1.13574" stroke="#3A3A3E" stroke-width="1.5" stroke-linecap="round" stroke-linejoin="round"/>
<path d="M16.8792 0.779647C20.5554 0.661059 24.113 0.898235 27.0777 1.49117" stroke="#3A3A3E" stroke-width="1.5" stroke-linecap="round" stroke-linejoin="round"/>
<path d="M30.635 2.43945C33.0068 3.38815 34.667 4.69262 35.3785 6.23426" stroke="#3A3A3E" stroke-width="1.5" stroke-linecap="round" stroke-linejoin="round"/>
<path d="M35.2594 8.96289C34.0736 10.6231 31.7018 11.5718 28.8557 12.0462" stroke="#3A3A3E" stroke-width="1.5" stroke-linecap="round" stroke-linejoin="round"/>
<path d="M25.4179 12.5195C21.7416 12.8753 17.5911 12.8753 14.0334 12.5195" stroke="#3A3A3E" stroke-width="1.5" stroke-linecap="round" stroke-linejoin="round"/>
<path d="M10.5924 12.0451C7.27191 11.4521 4.54439 10.2662 3.12134 8.72461" stroke="#3A3A3E" stroke-width="1.5" stroke-linecap="round" stroke-linejoin="round"/>
<path d="M1.58032 6.47179C2.17326 5.4045 3.12196 4.57438 4.18925 3.98145" stroke="#3A3A3E" stroke-width="1.5" stroke-linecap="round" stroke-linejoin="round"/>
<path d="M1.34399 6.82794C1.34399 5.99782 2.05552 5.16771 2.88563 4.69336" stroke="#3A3A3E" stroke-width="1.5" stroke-linecap="round" stroke-linejoin="round"/>
</svg>
